:SAMPLES-PER-SECOND 30
:FULLY-SPECIFIED
:DEGREES
434
root  37.3537 37.4078 -10.5043 130.11 -86.1692 -132.802
RightUpLeg  -28.5927 -16.2972 11.2813
RightLeg  24.4136 -6.3897 -3.44635
RightFoot  1.6722 1.1701 -10.1345
RightToes  0.000482159 0.542163 -0.142577
Spine  4.02926 -2.33569 4.84666
Spine1  12.3203 -2.59866 1.68041
HEad  -4.86699 4.42853 -9.31387
LeftShoulder1  8.85712 -14.4539 -42.8762
LeftArm  -8.61646 11.7034 -30.1578
LeftForeArm  89.1079 -78.9639 -103.457
LeftHand  -0.25398 0.0180481 5.50724
RightShoulder  4.72224 8.38512 33.774
RightArm  -26.1153 -32.6236 20.9721
RightForeArm  79.7796 71.0016 140.356
RightHand  0.484073 -16.5931 -6.01338
LeftUpLeg  17.2318 13.0822 6.77468
LeftLeg  35.6353 -9.00951 -6.51006
LeftFoot  3.52345 1.58519 -12.333
LeftToes  1.06247e-005 4.65855e-005 -8.18504e-006
435
root  36.0626 37.3361 -10.619 96.1015 -85.1913 -98.7433
RightUpLeg  -27.9808 -17.4534 12.7542
RightLeg  27.6129 -7.23337 -4.32861
RightFoot  -1.77524 0.871888 -10.5161
RightToes  0.000482159 0.542163 -0.142577
Spine  5.44131 -2.9871 7.12876
Spine1  12.0881 -3.08251 3.09779
HEad  -4.52052 3.97559 -8.54533
LeftShoulder1  8.89933 -14.5188 -42.9287
LeftArm  -8.30811 11.8138 -29.0301
LeftForeArm  85.5317 -79.0619 -100.366
LeftHand  -0.25398 0.0180481 5.50724
RightShoulder  4.73691 8.41442 33.799
RightArm  -24.9128 -32.1849 20.9651
RightForeArm  78.0615 71.5091 138.948
RightHand  0.554872 -17.4105 -6.31746
LeftUpLeg  8.82752 8.07287 7.39528
LeftLeg  48.0795 -5.4664 -6.0724
LeftFoot  15.4356 2.96308 -12.8579
LeftToes  1.06247e-005 4.65855e-005 -8.18504e-006
436
root  34.7205 37.4384 -10.7472 80.2338 -83.5098 -83.5796
RightUpLeg  -25.5305 -18.6342 13.6676
RightLeg  29.0996 -7.64903 -4.84466
RightFoot  -4.67231 0.565055 -10.1694
RightToes  0.000482159 0.542163 -0.142577
Spine  6.84467 -3.22231 9.51154
Spine1  12.1697 -2.91627 3.581
HEad  -3.62789 2.65418 -7.34076
LeftShoulder1  8.85345 -14.5242 -42.6789
LeftArm  -7.69927 11.0135 -28.3123
LeftForeArm  79.0977 -79.191 -94.2767
LeftHand  -0.25398 0.0180481 5.50724
RightShoulder  4.71088 8.32328 33.8843
RightArm  -23.7804 -31.9295 21.122
RightForeArm  76.0796 72.1069 137.155
RightHand  0.582282 -18.1363 -6.24029
LeftUpLeg  1.7543 3.85671 8.31049
LeftLeg  57.9486 -2.61328 -3.9768
LeftFoot  20.2483 3.21955 -11.7947
LeftToes  1.06247e-005 4.65855e-005 -8.18504e-006
437
root  33.2009 37.846 -10.8751 80.26 -83.2828 -84.666
RightUpLeg  -21.0932 -19.2921 12.7173
RightLeg  28.4441 -7.30363 -4.46594
RightFoot  -6.62492 0.328005 -9.03256
RightToes  0.000482159 0.542163 -0.142577
Spine  7.7314 -2.7819 10.4483
Spine1  12.1841 -2.05484 2.94028
HEad  -2.1454 1.32944 -6.03292
LeftShoulder1  8.74706 -14.4313 -42.3651
LeftArm  -7.44713 10.6687 -27.9349
LeftForeArm  73.4098 -79.2177 -88.612
LeftHand  -0.25398 0.0180481 5.50724
RightShoulder  4.73881 8.32941 34.0974
RightArm  -22.4217 -31.3579 21.2986
RightForeArm  73.1824 72.9927 134.194
RightHand  0.586057 -18.2018 -6.24488
LeftUpLeg  -3.70363 1.86065 8.14581
LeftLeg  64.1364 -0.36696 -0.205772
LeftFoot  17.9817 2.14969 -8.56932
LeftToes  1.06247e-005 4.65855e-005 -8.18504e-006
438
root  31.633 38.3144 -10.9966 89.5675 -84.1355 -94.6526
RightUpLeg  -16.3696 -19.3592 10.5557
RightLeg  26.8947 -6.56967 -3.10905
RightFoot  -8.16149 0.177415 -8.3901
RightToes  0.000482159 0.542163 -0.142577
Spine  7.82377 -2.02988 10.2682
Spine1  12.3032 -0.998648 2.03599
HEad  0.0320839 0.706798 -5.15368
LeftShoulder1  8.61495 -14.263 -42.1035
LeftArm  -7.92089 11.6128 -27.5903
LeftForeArm  71.3559 -79.2043 -86.436
LeftHand  -0.25398 0.0180481 5.50724
RightShoulder  4.79964 8.44403 34.2215
RightArm  -20.6327 -30.1871 21.4977
RightForeArm  69.3465 73.9482 130.422
RightHand  0.638876 -17.8561 -6.8703
LeftUpLeg  -8.54287 1.52918 7.01071
LeftLeg  66.7856 1.41441 4.30764
LeftFoot  12.8846 0.90397 -4.5828
LeftToes  1.06247e-005 4.65855e-005 -8.18504e-006
439
root  30.062 38.7169 -11.1167 107.542 -84.7832 -112.916
RightUpLeg  -11.9134 -17.6231 7.98573
RightLeg  25.1064 -6.96975 -1.37117
RightFoot  -9.49737 0.0685856 -8.2051
RightToes  0.000482159 0.542163 -0.142577
Spine  7.33707 -1.18472 9.95387
Spine1  12.4272 0.078034 1.14365
HEad  2.76074 0.605037 -4.89754
LeftShoulder1  8.45277 -14.0642 -41.7545
LeftArm  -8.76222 13.4347 -27.284
LeftForeArm  71.7683 -79.207 -86.8875
LeftHand  -0.25398 0.0180481 5.50724
RightShoulder  4.81995 8.52687 34.1148
RightArm  -18.6752 -28.8135 21.7903
RightForeArm  65.7861 74.6084 127.289
RightHand  0.757519 -17.726 -7.99944
LeftUpLeg  -13.0274 1.80013 5.69025
LeftLeg  66.3933 3.01975 8.22493
LeftFoot  8.60009 0.163442 -1.24674
LeftToes  1.06247e-005 4.65855e-005 -8.18504e-006
440
root  28.4809 39.11 -11.2426 130.627 -84.8022 -136.253
RightUpLeg  -7.41197 -14.4137 5.43759
RightLeg  22.6568 -8.27323 0.0659597
RightFoot  -10.4513 -0.0123126 -7.41803
RightToes  0.000482159 0.542163 -0.142577
Spine  6.71724 -0.263249 9.50271
Spine1  12.4377 1.20553 -0.0589689
HEad  5.50276 0.529825 -4.85794
LeftShoulder1  8.24573 -13.854 -41.1838
LeftArm  -9.51353 15.3094 -27.1504
LeftForeArm  72.363 -79.2029 -87.7546
LeftHand  -0.25398 0.0180481 5.50724
RightShoulder  4.81219 8.55724 33.9512
RightArm  -16.9665 -27.5861 22.1792
RightForeArm  63.4252 74.9561 125.391
RightHand  0.892795 -17.8813 -9.11345
LeftUpLeg  -16.7055 2.24019 4.28017
LeftLeg  63.1897 4.88954 11.0019
LeftFoot  5.17277 -0.190228 1.07404
LeftToes  1.06247e-005 4.65855e-005 -8.18504e-006
441
root  26.9297 39.4111 -11.3465 150.594 -84.3927 -156.306
RightUpLeg  -3.58365 -12.2265 3.19935
RightLeg  20.5122 -8.73035 1.06828
RightFoot  -11.361 -0.0781605 -6.50349
RightToes  0.000482159 0.542163 -0.142577
Spine  5.89201 0.522362 8.9054
Spine1  12.6415 2.16383 -1.32466
HEad  7.77073 0.368459 -4.61858
LeftShoulder1  8.01096 -13.6287 -40.483
LeftArm  -10.2053 16.8738 -27.1325
LeftForeArm  73.0997 -79.1933 -88.8563
LeftHand  -0.25398 0.0180481 5.50724
RightShoulder  4.82187 8.60298 33.8812
RightArm  -15.5902 -26.34 22.6151
RightForeArm  61.9586 75.1796 124.093
RightHand  0.99697 -17.9796 -9.9672
LeftUpLeg  -19.5004 2.57124 2.79781
LeftLeg  57.1067 6.70861 11.5597
LeftFoot  2.01762 -0.248263 1.99489
LeftToes  1.06247e-005 4.65855e-005 -8.18504e-006
442
root  25.4175 39.5252 -11.4235 159.266 -83.5209 -165.286
RightUpLeg  0.00737659 -11.0848 1.7791
RightLeg  19.161 -8.72264 1.88444
RightFoot  -12.5164 -0.152182 -6.51669
RightToes  0.000482159 0.542163 -0.142577
Spine  5.68776 0.958664 9.09098
Spine1  12.7193 2.83175 -2.45256
HEad  9.45882 0.308212 -4.27199
LeftShoulder1  7.79344 -13.393 -39.8832
LeftArm  -11.1288 18.1786 -27.141
LeftForeArm  75.3098 -79.1781 -91.3936
LeftHand  -0.25398 0.0180481 5.50724
RightShoulder  4.8256 8.65135 33.7544
RightArm  -14.3634 -24.8733 23.065
RightForeArm  60.9464 75.3331 123.16
RightHand  1.07833 -17.968 -10.6914
LeftUpLeg  -20.7897 3.00143 2.16224
LeftLeg  48.0251 7.18448 8.95551
LeftFoot  -0.00150338 -0.239256 2.4101
LeftToes  1.06247e-005 4.65855e-005 -8.18504e-006
443
root  23.9155 39.582 -11.5003 161.793 -82.5769 -168.15
RightUpLeg  3.91344 -10.1184 0.854746
RightLeg  17.1629 -8.49453 2.77869
RightFoot  -13.5875 -0.221614 -6.64206
RightToes  0.000482159 0.542163 -0.142577
Spine  5.64662 1.25373 9.44719
Spine1  12.8955 3.28032 -3.45992
HEad  10.7157 0.424601 -4.02293
LeftShoulder1  7.62086 -13.1653 -39.4988
LeftArm  -12.3699 19.2963 -27.254
LeftForeArm  79.1128 -79.124 -95.4353
LeftHand  -0.25398 0.0180481 5.50724
RightShoulder  4.80032 8.66879 33.4917
RightArm  -13.2275 -23.3328 23.4364
RightForeArm  60.2597 75.3875 122.781
RightHand  1.16208 -18.028 -11.3772
LeftUpLeg  -20.6822 4.28776 1.86599
LeftLeg  35.8461 6.13352 5.18543
LeftFoot  -0.518925 -0.30774 3.27652
LeftToes  1.06247e-005 4.65855e-005 -8.18504e-006
444
root  22.4389 39.6629 -11.5886 166.185 -81.3373 -172.629
RightUpLeg  7.78902 -9.4112 -0.253935
RightLeg  14.3254 -7.19496 3.50238
RightFoot  -14.3381 -0.244721 -5.68143
RightToes  0.000482159 0.542163 -0.142577
Spine  5.34517 1.7333 9.10702
Spine1  13.3791 3.88364 -4.54747
HEad  11.7837 0.659959 -3.73429
LeftShoulder1  7.47602 -12.9486 -39.2339
LeftArm  -13.7549 20.2728 -27.5408
LeftForeArm  83.2171 -79.0145 -99.6773
LeftHand  -0.25398 0.0180481 5.50724
RightShoulder  4.80573 8.71332 33.3927
RightArm  -12.2806 -21.8933 23.5963
RightForeArm  59.4977 75.4398 122.398
RightHand  1.22751 -18.0875 -11.898
LeftUpLeg  -19.4081 7.85612 1.01666
LeftLeg  21.2762 5.68858 2.50251
LeftFoot  -0.761179 -0.333618 3.64563
LeftToes  1.06247e-005 4.65855e-005 -8.18504e-006
445
root  20.9139 39.6263 -11.6587 171.443 -79.6497 -177.652
RightUpLeg  10.431 -9.70256 -1.77594
RightLeg  13.3468 -4.77559 3.60303
RightFoot  -15.3971 -0.273192 -4.73461
RightToes  0.000482159 0.542163 -0.142577
Spine  4.51421 2.32276 8.42027
Spine1  14.0886 4.68297 -5.52575
HEad  12.8904 1.07389 -3.23801
LeftShoulder1  7.31142 -12.7048 -38.9171
LeftArm  -15.078 21.2374 -27.8996
LeftForeArm  86.9088 -78.8705 -103.398
LeftHand  -0.25398 0.0180481 5.50724
RightShoulder  4.89552 8.8399 33.7142
RightArm  -11.5003 -20.4788 23.5584
RightForeArm  58.1148 75.6278 121.141
RightHand  1.24378 -17.9381 -12.1733
LeftUpLeg  -17.1582 9.83926 0.966576
LeftLeg  7.19092 11.4157 -1.04047
LeftFoot  -1.78629 -0.297523 3.7068
LeftToes  1.06247e-005 4.65855e-005 -8.18504e-006
